<?xml version="1.0"?>
<svg xmlns:rdf="http://www.w3.org/1999/02/22-rdf-syntax-ns#" xmlns="http://www.w3.org/2000/svg" xmlns:cc="http://web.resource.org/cc/" xmlns:dc="http://purl.org/dc/elements/1.1/" xmlns:svg="http://www.w3.org/2000/svg" id="svg2" viewBox="0 0 617.21 398.99" version="1.0">
  <g id="layer1" transform="translate(-59.144 -344.67)">
    <g id="g9000" transform="translate(14.276 -22.434)">
      <rect id="rect1880" height="196.2" width="589.48" stroke="#000" y="568.03" x="67.873" stroke-width="3.7294" fill="#ff0"/>
      <path id="rect1882" d="m70.734 555.96l469.3-178.09 120.18 193.18-592.34-6.04 2.864-9.05z" stroke="#000" stroke-width="3.7294" fill="#ff0"/>
      <path id="path1885" d="m307.96 605.72a33.651 32.631 0 1 1 -67.3 0 33.651 32.631 0 1 1 67.3 0z" transform="translate(18.355 75.46)" stroke="#000" stroke-width="2.588" fill="#fff"/>
      <path id="path1887" d="m288.43 713.07c-31.23-5.54-26.13-34.03-26.33-41.48-0.39-14.89 7.81 14.12 19.83 19.44 7.16 3.18 13.63 4.07 20.14 2.03 6.52-2.05 13.08-7.02 20.41-15.56 1.32-1.54 3.63 7.59-1.41 16.85s-17.45 18.65-32.64 18.72z" stroke="#000" stroke-width="2.5321" fill="#ff0"/>
      <path id="path3667" d="m108.09 652.63a31.612 28.552 0 1 1 -63.222 0 31.612 28.552 0 1 1 63.222 0z" fill="#fff" transform="matrix(1.129 0 0 1.3214 -5.7894 -198.56)"/>
      <path id="path3664" d="m87.369 627.66c8.806 1.63 14.381 6.42 18.741 10.76 4.74 4.73 9.39 14.33 9.36 22.01-0.04 8.06 2.16 17.39-9.07 28.83-8.183 8.33-10.893 9.25-19.575 10.83-8.705 1.57-14.383 1.11-19.407-1.86-2.244-1.33 25.581-9.74 23.635-36.82-1.712-23.92-28.632-31.54-22.674-32.83 4.812-1.05 12.426-2.2 18.99-0.92z" stroke="#000" stroke-width="3.025" fill="#ff0"/>
      <path id="path5441" d="m371.18 351.81a74.44 72.401 0 1 1 -148.88 0 74.44 72.401 0 1 1 148.88 0z" fill="#fff" transform="matrix(.71233 0 0 .56338 257.7 209.69)"/>
      <path id="path8105" d="m420.18 421.89c3.8 5.32 8.42 9.67 10.56 11.48 2.34 1.98 12.67 7.96 19.2 9.48 6.28 1.45 18.31 2.41 24.69 1.48 6.3-0.92 9.75-1.34 15.78-3.62 6.03-2.27 9.65-4.9 15.37-9.56 4.99-4.07 6.68-5.7 9.59-12.82 2.81-6.9 3.08-9.32 2.61-16.63-0.48-7.3-3.7-15.83-3.7-15.83" stroke="#000" stroke-width="3.761" fill="none"/>
      <path id="path8992" d="m307.96 605.72a33.651 32.631 0 1 1 -67.3 0 33.651 32.631 0 1 1 67.3 0z" transform="matrix(1.4829 -.54680 .56407 1.4375 -190.64 -78.289)" stroke="#000" stroke-width="2.588" fill="#fff"/>
      <path id="path8994" d="m508.54 661.2c-13.54-46.98 27.11-65.02 37.62-68.09 22.55-6.59-11.21 21.3-10.57 41.51 0.19 6.02 1.08 11.42 2.85 16.27 1.76 4.86 4.41 9.17 8.1 13 7.4 7.68 19.02 13.45 36.28 17.92 3.1 0.8-8.73 9.78-25.43 10.72-17.43 0.98-38.3-10.32-48.85-31.33z" stroke="#000" stroke-width="3.9552" fill="#ff0"/>
      <path id="path8996" d="m307.96 605.72a33.651 32.631 0 1 1 -67.3 0 33.651 32.631 0 1 1 67.3 0z" transform="matrix(.049237 -.98 1.044 .11622 -293.02 700.14)" stroke="#000" stroke-width="2.588" fill="#fff"/>
      <path id="path8998" d="m375.58 477.85c21.62 25.55 0.91 44.77-3.29 50.82-8.39 12.12 2.03-16.51-4.42-28.88-3.84-7.37-8.47-12.46-14.85-15.25s-14.51-3.27-25.33-1.43c-1.95 0.33 1.54-8.51 10.96-12.46 9.43-3.95 24.79-3.02 36.93 7.2z" stroke="#000" stroke-width="2.5683" fill="#ff0"/>
    </g>
  </g>
  <metadata>
    <rdf:RDF>
      <cc:Work>
        <dc:format>image/svg+xml</dc:format>
        <dc:type rdf:resource="http://purl.org/dc/dcmitype/StillImage"/>
        <cc:license rdf:resource="http://creativecommons.org/licenses/publicdomain/"/>
        <dc:publisher>
          <cc:Agent rdf:about="http://openclipart.org/">
            <dc:title>Openclipart</dc:title>
          </cc:Agent>
        </dc:publisher>
        <dc:title>cheese</dc:title>
        <dc:date>2006-12-31T03:47:13</dc:date>
        <dc:description>cheese, cheese, clip art, clipart, dairy, dairy, food, food, image, media, png, public domain, svg, yellow, yellow, </dc:description>
        <dc:source>http://openclipart.org/detail/2609/cheese-by-machovka</dc:source>
        <dc:creator>
          <cc:Agent>
            <dc:title>Machovka</dc:title>
          </cc:Agent>
        </dc:creator>
        <dc:subject>
          <rdf:Bag>
            <rdf:li>cheese</rdf:li>
            <rdf:li>clip art</rdf:li>
            <rdf:li>clipart</rdf:li>
            <rdf:li>dairy</rdf:li>
            <rdf:li>food</rdf:li>
            <rdf:li>image</rdf:li>
            <rdf:li>media</rdf:li>
            <rdf:li>png</rdf:li>
            <rdf:li>public domain</rdf:li>
            <rdf:li>svg</rdf:li>
            <rdf:li>yellow</rdf:li>
          </rdf:Bag>
        </dc:subject>
      </cc:Work>
      <cc:License rdf:about="http://creativecommons.org/licenses/publicdomain/">
        <cc:permits rdf:resource="http://creativecommons.org/ns#Reproduction"/>
        <cc:permits rdf:resource="http://creativecommons.org/ns#Distribution"/>
        <cc:permits rdf:resource="http://creativecommons.org/ns#DerivativeWorks"/>
      </cc:License>
    </rdf:RDF>
  </metadata>
</svg>
