<?xml version="1.0" encoding="UTF-8" standalone="no"?>
<!-- Created with Inkscape (http://www.inkscape.org/) -->

<svg
   xmlns:dc="http://purl.org/dc/elements/1.1/"
   xmlns:cc="http://creativecommons.org/ns#"
   xmlns:rdf="http://www.w3.org/1999/02/22-rdf-syntax-ns#"
   xmlns:svg="http://www.w3.org/2000/svg"
   xmlns="http://www.w3.org/2000/svg"
   xmlns:xlink="http://www.w3.org/1999/xlink"
   xmlns:sodipodi="http://sodipodi.sourceforge.net/DTD/sodipodi-0.dtd"
   xmlns:inkscape="http://www.inkscape.org/namespaces/inkscape"
   width="210mm"
   height="297mm"
   viewBox="0 0 210 297"
   version="1.1"
   id="svg8"
   inkscape:version="0.92.2 5c3e80d, 2017-08-06"
   sodipodi:docname="mouse_grid.svg">
  <defs
     id="defs2">
    <linearGradient
       inkscape:collect="always"
       id="linearGradient3861">
      <stop
         offset="0"
         style="stop-color:#000000"
         id="stop3863" />
      <stop
         offset="1"
         style="stop-color:#000000;stop-opacity:0"
         id="stop3865" />
    </linearGradient>
    <linearGradient
       inkscape:collect="always"
       x1="-96.497"
       y1="176.83"
       gradientTransform="translate(466.1,-114.87)"
       x2="-148.82"
       gradientUnits="userSpaceOnUse"
       xlink:href="#linearGradient3861"
       y2="241"
       id="linearGradient3903" />
    <linearGradient
       inkscape:collect="always"
       x1="-324.17"
       y1="10.774"
       gradientTransform="translate(476.19,48.749)"
       x2="-278.56"
       gradientUnits="userSpaceOnUse"
       y2="72.089"
       id="linearGradient3905">
      <stop
         offset="0"
         style="stop-color:#000000"
         id="stop3853" />
      <stop
         offset="1"
         style="stop-color:#666666;stop-opacity:0"
         id="stop3855" />
    </linearGradient>
    <linearGradient
       inkscape:collect="always"
       x1="-156.46"
       y1="440.75"
       x2="-83.267"
       gradientUnits="userSpaceOnUse"
       xlink:href="#linearGradient3861"
       y2="493"
       id="linearGradient3907" />
  </defs>
  <sodipodi:namedview
     id="base"
     pagecolor="#ffffff"
     bordercolor="#666666"
     borderopacity="1.0"
     inkscape:pageopacity="0.0"
     inkscape:pageshadow="2"
     inkscape:zoom="0.35"
     inkscape:cx="400"
     inkscape:cy="674.28571"
     inkscape:document-units="mm"
     inkscape:current-layer="layer1"
     showgrid="true"
     inkscape:pagecheckerboard="false"
     inkscape:window-width="1440"
     inkscape:window-height="775"
     inkscape:window-x="0"
     inkscape:window-y="1"
     inkscape:window-maximized="1">
    <inkscape:grid
       type="xygrid"
       id="grid2291"
       enabled="false" />
  </sodipodi:namedview>
  <metadata
     id="metadata5">
    <rdf:RDF>
      <cc:Work
         rdf:about="">
        <dc:format>image/svg+xml</dc:format>
        <dc:type
           rdf:resource="http://purl.org/dc/dcmitype/StillImage" />
        <dc:title></dc:title>
      </cc:Work>
    </rdf:RDF>
  </metadata>
  <g
     inkscape:label="Ebene 1"
     inkscape:groupmode="layer"
     id="layer1">
    <path
       style="fill:none;stroke:#000000;stroke-width:1.40788317px;stroke-linecap:butt;stroke-linejoin:miter;stroke-opacity:1"
       d="M 20.226412,48.863319 V 217.8093 H 189.17242 V 48.863319 Z"
       id="path5984"
       inkscape:connector-curvature="0" />
    <path
       style="fill:none;stroke:#000000;stroke-width:1.40788317px;stroke-linecap:butt;stroke-linejoin:miter;stroke-opacity:1"
       d="m 20.226412,105.17865 c 168.946008,0 168.946008,0 168.946008,0 v 0 0 0 0"
       id="path5986"
       inkscape:connector-curvature="0" />
    <path
       style="fill:none;stroke:#000000;stroke-width:1.40788317px;stroke-linecap:butt;stroke-linejoin:miter;stroke-opacity:1"
       d="m 20.226412,161.494 c 168.946008,0 168.946008,0 168.946008,0"
       id="path5988"
       inkscape:connector-curvature="0" />
    <path
       style="fill:none;stroke:#000000;stroke-width:1.40788317px;stroke-linecap:butt;stroke-linejoin:miter;stroke-opacity:1"
       d="m 76.541742,48.863319 c 0,168.945981 0,168.945981 0,168.945981"
       id="path5990"
       inkscape:connector-curvature="0" />
    <path
       style="fill:none;stroke:#000000;stroke-width:1.40788317px;stroke-linecap:butt;stroke-linejoin:miter;stroke-opacity:1"
       d="m 132.85706,48.863319 c 0,168.945981 0,168.945981 0,168.945981"
       id="path5992"
       inkscape:connector-curvature="0" />
    <g
       transform="matrix(0.07407716,0,0,0.07407716,75.415551,116.89336)"
       inkscape:label="Layer 1"
       id="layer1-8">
      <g
         id="g3887">
        <path
           inkscape:connector-curvature="0"
           style="fill:#020202"
           sodipodi:nodetypes="scccccccccccccccccccccccccccccccccscssccccssscscscccscccsssccccscssssccccccccccscccccccccccccccccsscscccccssccsssssssssssssssssscssscscccccscccccccccccccccc"
           d="m 181.68,31.216 c -22.139,0.34466 -43.336,8.4212 -55.562,26.5 -17.429,26.92 -15.921,73.893 -3.1562,109.81 -6.3629,8.3217 -8.2275,20.914 -10.406,32.656 -14.69,-12.501 -45.525,-32.716 -75.125,-22.5 39.571,1.9858 64.169,23.529 71.594,28.781 -4.856,2.1525 -17.525,15.362 -20.5,19.531 -10.557,-15.924 -35.928,-21.055 -56.094,-6.9688 5.9667,0.007 29.539,-10.657 54,11.406 -27.553,-2.2738 -33.571,33.25 -11.375,44.656 15.999,23.981 39.925,42.502 76.781,52.594 -1.3527,6.3348 -16.473,25.351 -22.719,36.094 9.2362,-8.3406 24.597,-25.561 28.812,-36 7.464,0.41731 29.76,-2.297 38.094,-6.4062 -2.0184,13.12 -14.66,37.604 -20.312,49.594 8.6059,-2.2959 25.332,-40.241 27.781,-51.938 7.7548,7.1774 14.378,12.037 24.031,16.844 -10.566,22.274 -12.662,27.842 -18.812,36.844 -1.5656,4.42 0.4489,7.057 6.3438,8.3438 2.4061,0.5256 30.235,-0.76485 32.125,-1.2188 -6.0696,15.141 35.844,6.8244 45.312,5.375 26.623,10.663 52.475,6.5809 68.688,5.0312 12.616,-2.0442 19.751,-7.838 28.281,-11.531 8.0074,-4.393 28.705,-1.6985 40.875,1.8438 7.3416,1.4308 8.8527,1.6016 11.406,1.4062 23.35,-2.4638 41.418,-30.575 20.25,-50.188 4.9121,-5.2181 20.875,-28.375 20.875,-28.375 8.9714,6.3891 21.481,64.432 73.906,67.562 45.954,-0.37782 73.87,-65.546 114.59,-87.156 28.28,-0.95943 25.358,24.113 49.875,24.188 13.078,-12.282 -19.254,-67.36 -55.688,-58 -23.299,7.3708 -70.253,75.289 -100.12,79.562 -33.458,3.4649 -39.866,-80.525 -75.562,-84.375 -13.839,-53.5 -73.508,-65.055 -110.22,-67.875 22.88,-31.75 26.67,-77.529 4.45,-105.47 -25.49,-32.055 -87.3,-32.169 -126.59,-4.188 -13.36,-22.804 -45.51,-36.878 -75.85,-36.406 z m 4.5312,9.25 c 21.518,-0.0224 44.667,10.24 62.656,33.844 -15.491,15.659 -32.698,36.331 -39.406,68.375 -30.12,-8.8127 -57.949,-2.5257 -77.469,16.375 -6.4697,-16.457 -13.098,-48.998 -7.2812,-68.25 5.6396,-30.941 32.012,-50.313 61.5,-50.344 z m 136.78,16.781 c 25.825,-0.18012 48.703,10.815 58.531,32.25 8.2529,17.998 11.082,45.693 -6.7812,76.906 -10.187,14.901 -29.472,38.145 -56.5,46.438 -32.326,9.9185 -72.22,3.7107 -73.094,7.875 -0.93421,4.9783 38.235,13.494 71.75,2.6875 25.166,-8.1142 45.958,-25.942 56.344,-35.875 45.042,0.65912 114.72,24.127 109.38,80.656 -1.3511,25.885 -12.159,41.682 -36.812,63.281 11.373,6.3466 19.177,12.341 17.125,22.062 -1.3396,6.3449 -5.4348,16.922 -20.531,21.094 -9.4847,-1.4526 -46.471,-13.577 -58.438,-2.9062 -8.852,8.8947 -40.202,15.339 -47.438,13.844 -18.067,-1.7031 -42.85,-3.6197 -42.938,-7.6875 -0.41793,-19.451 24.675,-12.743 46.719,-16.156 13.854,-2.145 30.854,-7.8927 40.812,-13.312 3.5357,-1.9242 6.1163,-4.1582 5.7812,-5.0312 -2.9048,-4.8091 -12.328,7.6792 -36.562,6.125 -35.39,-1.1946 -72.844,-36.404 -67,-61.281 4.4854,-51.821 94.945,-68.655 127.09,-37.438 7.8257,3.8242 8.4989,7.6708 12.781,7.9375 3.9336,0.245 5.5212,-0.0271 6.9375,-1.2188 4.5658,-3.8419 -2.4516,-11.919 -16.562,-19.094 -10.19,-5.1811 -19.971,-8.2428 -31.844,-10 -6.0464,-0.89485 -22.221,-0.89965 -28.875,0 -9.7831,1.3227 -21.025,3.9918 -29.219,6.9062 -5.4138,1.9256 -14.034,6.1577 -18.438,9.0625 -34.157,18.68 -37.373,48.046 -19.375,76.5 3.2275,3.9543 8.5932,10.896 14.562,16.219 -4.056,0.43794 -15.312,40.005 -13.375,40.281 -4.8912,4.4621 -32.219,7.109 -31.156,-1.4688 3.9238,-15.519 11.343,-38.357 14.344,-54.688 0.2242,-1.6432 -3.7637,-6.4274 -7.0312,-0.96875 -2.4667,3.0038 -2.3283,13.014 -5.2188,18.188 -22.326,-5.3343 -43.182,-20.439 -47.781,-23.281 10.512,-9.5011 22.765,-16.703 25.75,-29.844 3.9708,-20.55 -5.9088,-30.154 -8.875,-27.062 -2.9662,3.0916 6.0329,11.482 1.875,27.156 -0.58433,6.0374 -15.92,19.588 -25.938,26.844 -1.3602,-12.734 -4.8639,-25.657 -6.8438,-28.312 -4.7198,-8.0553 -16.339,-2.5195 -10.719,5.3125 3.043,6.8687 12.507,15.991 10.656,26.062 -6.7656,3.0772 -31.041,7.0656 -35.938,4.9062 2.1956,-9.9992 9.1768,-25.207 8.3125,-34.531 -1.729,-13.001 -18.997,-7.8576 -14.688,7.75 0.86855,7.2744 1.0062,18.326 -1.5312,26 -24.451,-4.0467 -60.275,-27.384 -66.844,-45.406 12.347,-1.7546 14.847,-4.2163 16.906,-6.3438 7.563,-7.2639 9.3012,-21.063 2.0312,-30.281 -4.493,-4.7569 -5.4078,-4.6039 -9.6875,-6.75 2.5486,-5.4569 18.34,-20.95 26.312,-23.188 0.19656,-14.863 0.59983,-27.288 16.188,-43.875 18.668,-16.529 54.546,-21.246 77.375,-10.875 6.6616,-16.658 8.616,-29.356 19.75,-44.75 22.079,-34.022 57.55,-50.501 88.719,-50.719 z m -12.969,53.063 c -11.495,0.36225 -21.943,7.0097 -31.031,15.031 -8.4088,8.7958 -12.663,19.039 -12.156,29.312 0.35013,7.1041 2.3135,11.657 7.0625,16.406 4.5759,4.4764 12.85,7.8225 20.594,7.3125 18.595,-0.85501 36.889,-15.894 41.688,-34.281 1.7435,-6.7699 1.4289,-13.409 -1.75,-20.656 -2.7688,-5.6485 -7.7417,-9.7236 -14.5,-11.844 -3.3745,-0.99207 -6.6876,-1.3827 -9.9062,-1.2812 z m 1.4688,6.7812 c 10.878,0.24042 19.47,7.7193 17.906,26.531 -5.2045,21.883 -39.801,38.075 -50.156,22.281 -17.578,-23.412 11.483,-49.271 32.25,-48.812 z m -168.03,81.156 c -1.2338,0.0555 -2.5007,0.62802 -3.6875,1.7812 -4.8054,4.6695 -3.8573,15.593 1.625,18.625 1.151,0.63659 3.5724,0.49396 4.8438,-0.28125 2.7908,-1.7018 4.257,-4.98 4.2812,-9.5938 0.0334,-6.3297 -3.361,-10.698 -7.0625,-10.531 z m 38.938,12.188 c -1.2967,0.0484 -2.6171,0.67534 -3.8125,1.9062 -3.8326,3.9463 -3.96,12.675 -0.25,16.781 0.72734,0.80508 1.6512,1.5833 2.0625,1.75 1.1847,0.48028 3.4787,0.40768 4.5625,-0.15625 1.3223,-0.68797 2.3822,-1.8965 3.4375,-3.9062 0.76777,-1.4622 0.84375,-2.1382 0.84375,-5.875 0,-3.8744 -0.0737,-4.4092 -0.96875,-6.0938 -1.5839,-2.9809 -3.7138,-4.4869 -5.875,-4.4062 z m -98.281,24.812 c 5.29,-0.16142 12.847,1.435 16.625,6.8438 3.5932,5.1444 3.0379,15.069 -1.5625,22.094 -4.9022,4.7154 -16.179,5.9177 -18.344,5.375 -2.1652,-0.54273 -4.7883,0.29604 -7.6562,-1.875 -2.9655,-2.2449 -6.1749,-7.5238 -7.3125,-10.531 -0.7538,-1.9928 -0.98029,-17.404 15.031,-21.531 0.90591,-0.19573 1.998,-0.33775 3.2188,-0.375 z m 407.22,20.031 c 15.573,7.8409 29.403,48.728 40.188,60.125 45.298,78.404 103.43,-52.294 141.62,-57.188 21.036,-0.40826 46.063,36.22 42.938,41.125 -12.763,-6.5436 -27.592,-28.674 -46.406,-25.469 -24.146,1.47 -63.115,84.76 -113.84,86.5 -29.892,1.0256 -48.806,-36.095 -67.406,-67.312 6.3507,-19.857 4.3885,-24.75 2.9062,-37.781 z m -257.38,83.5 c 7.8504,1.4831 15.324,4.3225 23,6.625 -1.712,8.1191 -4.0122,14.537 -7.4062,27.562 -5.5079,1.0213 -33.311,2.9168 -30.812,-3 1.0001,-5.58 10.819,-23.635 15.219,-31.188 z m 71.125,2.2188 c 10.755,5.8792 23.293,12.325 33.5,14.031 -2.6779,0.24345 -13.761,0.4671 -20.175,0.76035 l -18.45,-6.8651 c 1.5919,-2.8507 4.1391,-6.6315 5.1246,-7.9265 z m -7.7181,13.093 10.553,3.6776 c -8.4529,0.90338 -11.284,1.2495 -12.835,4.6672 0.18944,-2.781 0.33293,-4.3919 2.2819,-8.3448 z"
           id="path2998" />
        <path
           inkscape:connector-curvature="0"
           style="fill:#666666"
           d="m 185.92,40.758 c 21.518,-0.0224 44.667,10.24 62.656,33.844 -15.491,15.659 -32.698,36.331 -39.406,68.375 -30.12,-8.8127 -57.949,-2.5257 -77.469,16.375 -6.4697,-16.457 -13.098,-48.998 -7.2812,-68.25 5.6396,-30.941 32.012,-50.313 61.5,-50.344 z"
           id="path3840" />
        <path
           inkscape:connector-curvature="0"
           style="fill:#666666"
           d="m 323,57.247 c 25.825,-0.18012 48.703,10.815 58.531,32.25 8.2529,17.998 11.082,45.693 -6.7812,76.906 -10.187,14.901 -29.472,38.145 -56.5,46.438 -32.326,9.9185 -72.22,3.7107 -73.094,7.875 -0.93421,4.9783 38.235,13.494 71.75,2.6875 25.166,-8.1142 45.958,-25.942 56.344,-35.875 45.042,0.65912 114.72,24.127 109.38,80.656 -1.3511,25.885 -12.159,41.682 -36.812,63.281 11.373,6.3466 19.177,12.341 17.125,22.062 -1.3396,6.3449 -5.4348,16.922 -20.531,21.094 -9.4847,-1.4526 -46.471,-13.577 -58.438,-2.9062 -8.852,8.8947 -40.202,15.339 -47.438,13.844 -18.067,-1.7031 -42.85,-3.6197 -42.938,-7.6875 -0.41793,-19.451 24.675,-12.743 46.719,-16.156 13.854,-2.145 30.854,-7.8927 40.812,-13.312 3.5357,-1.9242 6.1163,-4.1582 5.7812,-5.0312 -2.9048,-4.8091 -12.328,7.6792 -36.562,6.125 -35.39,-1.1946 -72.844,-36.404 -67,-61.281 4.4854,-51.821 94.945,-68.655 127.09,-37.438 7.8257,3.8242 8.4989,7.6708 12.781,7.9375 3.9336,0.245 5.5212,-0.0271 6.9375,-1.2188 4.5658,-3.8419 -2.4516,-11.919 -16.562,-19.094 -10.19,-5.1811 -19.971,-8.2428 -31.844,-10 -6.0464,-0.89485 -22.221,-0.89965 -28.875,0 -9.7831,1.3227 -21.025,3.9918 -29.219,6.9062 -5.4138,1.9256 -14.034,6.1577 -18.438,9.0625 -34.157,18.68 -37.373,48.046 -19.375,76.5 3.2275,3.9543 8.5932,10.896 14.562,16.219 -4.056,0.43794 -15.312,40.005 -13.375,40.281 -4.8912,4.4621 -32.219,7.109 -31.156,-1.4688 3.9238,-15.519 11.343,-38.357 14.344,-54.688 0.2242,-1.6432 -3.7637,-6.4274 -7.0312,-0.96875 -2.4667,3.0038 -2.3283,13.014 -5.2188,18.188 -22.326,-5.3343 -43.182,-20.439 -47.781,-23.281 10.512,-9.5011 22.765,-16.703 25.75,-29.844 3.9708,-20.55 -5.9088,-30.154 -8.875,-27.062 -2.9662,3.0916 6.0329,11.482 1.875,27.156 -0.58433,6.0374 -15.92,19.588 -25.938,26.844 -1.3602,-12.734 -4.8639,-25.657 -6.8438,-28.312 -4.7198,-8.0553 -16.339,-2.5195 -10.719,5.3125 3.043,6.8687 12.507,15.991 10.656,26.062 -6.7656,3.0772 -31.041,7.0656 -35.938,4.9062 2.1956,-9.9992 9.1768,-25.207 8.3125,-34.531 -1.729,-13.001 -18.997,-7.8576 -14.688,7.75 0.86855,7.2744 1.0062,18.326 -1.5312,26 -24.451,-4.0467 -60.275,-27.384 -66.844,-45.406 12.347,-1.7546 14.847,-4.2163 16.906,-6.3438 7.563,-7.2639 9.3012,-21.063 2.0312,-30.281 -4.493,-4.7569 -5.4078,-4.6039 -9.6875,-6.75 2.5486,-5.4569 18.34,-20.95 26.312,-23.188 0.19656,-14.863 0.59983,-27.288 16.188,-43.875 18.668,-16.529 54.546,-21.246 77.375,-10.875 6.6616,-16.658 8.616,-29.356 19.75,-44.75 22.079,-34.022 57.55,-50.501 88.719,-50.719 z"
           id="path3838" />
        <path
           inkscape:connector-curvature="0"
           style="fill:#020202"
           d="m 147.17,197.2 c -1.2338,0.0555 -2.5007,0.62802 -3.6875,1.7812 -4.8054,4.6695 -3.8573,15.593 1.625,18.625 1.151,0.63659 3.5724,0.49396 4.8438,-0.28125 2.7908,-1.7018 4.257,-4.98 4.2812,-9.5938 0.0334,-6.3297 -3.361,-10.698 -7.0625,-10.531 z"
           id="path3832" />
        <path
           inkscape:connector-curvature="0"
           style="fill:#020202"
           d="m 186.11,209.39 c -1.2967,0.0484 -2.6171,0.67534 -3.8125,1.9062 -3.8326,3.9463 -3.96,12.675 -0.25,16.781 0.72734,0.80508 1.6512,1.5833 2.0625,1.75 1.1847,0.48028 3.4787,0.40768 4.5625,-0.15625 1.3223,-0.68797 2.3822,-1.8965 3.4375,-3.9062 0.76777,-1.4622 0.84375,-2.1382 0.84375,-5.875 0,-3.8744 -0.0737,-4.4092 -0.96875,-6.0938 -1.5839,-2.9809 -3.7138,-4.4869 -5.875,-4.4062 z"
           id="path3830" />
        <path
           inkscape:connector-curvature="0"
           style="fill:#333333"
           d="m 84.121,235.25 c 5.29,-0.16142 12.847,1.435 16.625,6.8438 3.5932,5.1444 3.0379,15.069 -1.5625,22.094 -4.9022,4.7154 -16.179,5.9177 -18.344,5.375 -2.1652,-0.54273 -4.7883,0.29604 -7.6562,-1.875 -2.9655,-2.2449 -6.1749,-7.5238 -7.3125,-10.531 -0.7538,-1.9928 -0.98029,-17.404 15.031,-21.531 0.90591,-0.19573 1.998,-0.33775 3.2188,-0.375 z"
           id="path3828" />
        <path
           inkscape:connector-curvature="0"
           style="fill:#666666"
           d="m 491.51,255.1 c 15.573,7.8409 29.403,48.728 40.188,60.125 45.298,78.404 103.43,-52.294 141.62,-57.188 21.036,-0.40826 46.063,36.22 42.938,41.125 -12.763,-6.5436 -27.592,-28.674 -46.406,-25.469 -24.146,1.47 -63.115,84.76 -113.84,86.5 -29.892,1.0256 -48.806,-36.095 -67.406,-67.312 6.3507,-19.857 4.3885,-24.75 2.9062,-37.781 z"
           id="path3826" />
        <path
           inkscape:connector-curvature="0"
           style="fill:#666666"
           d="m 233.96,338.78 c 7.8504,1.4831 15.324,4.3225 23,6.625 -1.712,8.1191 -4.0122,14.537 -7.4062,27.562 -5.5079,1.0213 -33.311,2.9168 -30.812,-3 1.0001,-5.58 10.819,-23.635 15.219,-31.188 z"
           id="path3824" />
        <path
           inkscape:connector-curvature="0"
           style="fill:#666666"
           d="m 305.09,341 c 10.755,5.8792 23.293,12.325 33.5,14.031 -2.6779,0.24345 -13.761,0.4671 -20.175,0.76035 l -18.45,-6.8651 c 1.5919,-2.8507 4.1391,-6.6315 5.1246,-7.9265 z"
           id="path3822" />
        <path
           d="m 323.59,56.653 c 25.825,-0.18012 48.703,10.815 58.531,32.25 8.2529,17.998 11.082,45.693 -6.7812,76.906 -10.187,14.901 -29.472,38.145 -56.5,46.438 -37.234,-53.269 -71.912,-60.337 -103.72,-60.125 6.6616,-16.658 8.616,-29.356 19.75,-44.75 22.079,-34.022 57.55,-50.501 88.719,-50.719 z"
           style="fill:url(#linearGradient3903)"
           inkscape:connector-curvature="0"
           sodipodi:nodetypes="ssccccs"
           id="path3873" />
        <path
           inkscape:connector-curvature="0"
           style="fill:#f4d7d7"
           d="m 311.2,114.71 c 10.878,0.24042 19.47,7.7193 17.906,26.531 -5.2045,21.883 -39.801,38.075 -50.156,22.281 -17.578,-23.412 11.483,-49.271 32.25,-48.812 z"
           id="path3834" />
        <path
           inkscape:connector-curvature="0"
           style="fill:#020202"
           d="m 309.74,107.92 c -11.495,0.36225 -21.943,7.0097 -31.031,15.031 -8.4088,8.7958 -12.663,19.039 -12.156,29.312 0.35013,7.1041 2.3135,11.657 7.0625,16.406 4.5759,4.4764 12.85,7.8225 20.594,7.3125 18.595,-0.85501 36.889,-15.894 41.688,-34.281 1.7435,-6.7699 1.4289,-13.409 -1.75,-20.656 -2.7688,-5.6485 -7.7417,-9.7236 -14.5,-11.844 -3.3745,-0.99207 -6.6876,-1.3827 -9.9062,-1.2812 z m 1.4688,6.7812 c 10.878,0.24042 19.47,7.7193 17.906,26.531 -5.2045,21.883 -39.801,38.075 -50.156,22.281 -17.578,-23.412 11.483,-49.271 32.25,-48.812 z"
           id="path3844" />
        <path
           d="m 184.58,36.749 c 21.518,-0.0224 44.667,10.24 62.656,33.844 -15.491,15.659 -32.698,36.331 -39.406,68.375 -30.12,-8.8127 -57.949,-2.5257 -77.469,16.375 -6.4697,-16.457 -13.098,-48.998 -7.2812,-68.25 5.6396,-30.941 32.012,-50.313 61.5,-50.344 z"
           inkscape:connector-curvature="0"
           style="fill:url(#linearGradient3905)"
           id="path3849" />
        <ellipse
           transform="matrix(0.95106,0.047701,-0.04067,0.85864,448.37,-94.401)"
           style="fill:url(#linearGradient3907)"
           id="path3859"
           cx="-65.476952"
           cy="455.052"
           rx="90.865982"
           ry="70.822014" />
      </g>
    </g>
    <g
       transform="matrix(0.05107141,0,0,0.05107141,25.496292,46.464143)"
       id="layer1-4">
      <g
         transform="translate(14.276,-22.434)"
         id="g9000">
        <rect
           x="67.873001"
           y="568.03003"
           width="589.47998"
           height="196.2"
           id="rect1880"
           style="fill:#ffff00;stroke:#000000;stroke-width:3.72939992" />
        <path
           d="m 70.734,555.96 469.3,-178.09 120.18,193.18 -592.34,-6.04 2.864,-9.05 z"
           id="rect1882"
           inkscape:connector-curvature="0"
           style="fill:#ffff00;stroke:#000000;stroke-width:3.72939992" />
        <path
           transform="translate(18.355,75.46)"
           d="m 307.96,605.72 a 33.651,32.631 0 1 1 -67.3,0 33.651,32.631 0 1 1 67.3,0 z"
           id="path1885"
           inkscape:connector-curvature="0"
           style="fill:#ffffff;stroke:#000000;stroke-width:2.58800006" />
        <path
           d="m 288.43,713.07 c -31.23,-5.54 -26.13,-34.03 -26.33,-41.48 -0.39,-14.89 7.81,14.12 19.83,19.44 7.16,3.18 13.63,4.07 20.14,2.03 6.52,-2.05 13.08,-7.02 20.41,-15.56 1.32,-1.54 3.63,7.59 -1.41,16.85 -5.04,9.26 -17.45,18.65 -32.64,18.72 z"
           id="path1887"
           inkscape:connector-curvature="0"
           style="fill:#ffff00;stroke:#000000;stroke-width:2.53209996" />
        <path
           transform="matrix(1.129,0,0,1.3214,-5.7894,-198.56)"
           d="m 108.09,652.63 a 31.612,28.552 0 1 1 -63.222,0 31.612,28.552 0 1 1 63.222,0 z"
           id="path3667"
           inkscape:connector-curvature="0"
           style="fill:#ffffff" />
        <path
           d="m 87.369,627.66 c 8.806,1.63 14.381,6.42 18.741,10.76 4.74,4.73 9.39,14.33 9.36,22.01 -0.04,8.06 2.16,17.39 -9.07,28.83 -8.183,8.33 -10.893,9.25 -19.575,10.83 -8.705,1.57 -14.383,1.11 -19.407,-1.86 -2.244,-1.33 25.581,-9.74 23.635,-36.82 -1.712,-23.92 -28.632,-31.54 -22.674,-32.83 4.812,-1.05 12.426,-2.2 18.99,-0.92 z"
           id="path3664"
           inkscape:connector-curvature="0"
           style="fill:#ffff00;stroke:#000000;stroke-width:3.0250001" />
        <path
           transform="matrix(0.71233,0,0,0.56338,257.7,209.69)"
           d="m 371.18,351.81 a 74.44,72.401 0 1 1 -148.88,0 74.44,72.401 0 1 1 148.88,0 z"
           id="path5441"
           inkscape:connector-curvature="0"
           style="fill:#ffffff" />
        <path
           d="m 420.18,421.89 c 3.8,5.32 8.42,9.67 10.56,11.48 2.34,1.98 12.67,7.96 19.2,9.48 6.28,1.45 18.31,2.41 24.69,1.48 6.3,-0.92 9.75,-1.34 15.78,-3.62 6.03,-2.27 9.65,-4.9 15.37,-9.56 4.99,-4.07 6.68,-5.7 9.59,-12.82 2.81,-6.9 3.08,-9.32 2.61,-16.63 -0.48,-7.3 -3.7,-15.83 -3.7,-15.83"
           id="path8105"
           inkscape:connector-curvature="0"
           style="fill:none;stroke:#000000;stroke-width:3.76099992" />
        <path
           transform="matrix(1.4829,-0.5468,0.56407,1.4375,-190.64,-78.289)"
           d="m 307.96,605.72 a 33.651,32.631 0 1 1 -67.3,0 33.651,32.631 0 1 1 67.3,0 z"
           id="path8992"
           inkscape:connector-curvature="0"
           style="fill:#ffffff;stroke:#000000;stroke-width:2.58800006" />
        <path
           d="m 508.54,661.2 c -13.54,-46.98 27.11,-65.02 37.62,-68.09 22.55,-6.59 -11.21,21.3 -10.57,41.51 0.19,6.02 1.08,11.42 2.85,16.27 1.76,4.86 4.41,9.17 8.1,13 7.4,7.68 19.02,13.45 36.28,17.92 3.1,0.8 -8.73,9.78 -25.43,10.72 -17.43,0.98 -38.3,-10.32 -48.85,-31.33 z"
           id="path8994"
           inkscape:connector-curvature="0"
           style="fill:#ffff00;stroke:#000000;stroke-width:3.95519996" />
        <path
           transform="matrix(0.049237,-0.98,1.044,0.11622,-293.02,700.14)"
           d="m 307.96,605.72 a 33.651,32.631 0 1 1 -67.3,0 33.651,32.631 0 1 1 67.3,0 z"
           id="path8996"
           inkscape:connector-curvature="0"
           style="fill:#ffffff;stroke:#000000;stroke-width:2.58800006" />
        <path
           d="m 375.58,477.85 c 21.62,25.55 0.91,44.77 -3.29,50.82 -8.39,12.12 2.03,-16.51 -4.42,-28.88 -3.84,-7.37 -8.47,-12.46 -14.85,-15.25 -6.38,-2.79 -14.51,-3.27 -25.33,-1.43 -1.95,0.33 1.54,-8.51 10.96,-12.46 9.43,-3.95 24.79,-3.02 36.93,7.2 z"
           id="path8998"
           inkscape:connector-curvature="0"
           style="fill:#ffff00;stroke:#000000;stroke-width:2.56830001" />
      </g>
    </g>
    <g
       id="g6215"
       transform="matrix(0.05107141,0,0,0.05107141,134.86436,152.6638)">
      <g
         id="g6213"
         transform="translate(14.276,-22.434)">
        <rect
           style="fill:#ffff00;stroke:#000000;stroke-width:3.72939992"
           id="rect6189"
           height="196.2"
           width="589.47998"
           y="568.03003"
           x="67.873001" />
        <path
           style="fill:#ffff00;stroke:#000000;stroke-width:3.72939992"
           inkscape:connector-curvature="0"
           id="path6191"
           d="m 70.734,555.96 469.3,-178.09 120.18,193.18 -592.34,-6.04 2.864,-9.05 z" />
        <path
           style="fill:#ffffff;stroke:#000000;stroke-width:2.58800006"
           inkscape:connector-curvature="0"
           id="path6193"
           d="m 307.96,605.72 a 33.651,32.631 0 1 1 -67.3,0 33.651,32.631 0 1 1 67.3,0 z"
           transform="translate(18.355,75.46)" />
        <path
           style="fill:#ffff00;stroke:#000000;stroke-width:2.53209996"
           inkscape:connector-curvature="0"
           id="path6195"
           d="m 288.43,713.07 c -31.23,-5.54 -26.13,-34.03 -26.33,-41.48 -0.39,-14.89 7.81,14.12 19.83,19.44 7.16,3.18 13.63,4.07 20.14,2.03 6.52,-2.05 13.08,-7.02 20.41,-15.56 1.32,-1.54 3.63,7.59 -1.41,16.85 -5.04,9.26 -17.45,18.65 -32.64,18.72 z" />
        <path
           style="fill:#ffffff"
           inkscape:connector-curvature="0"
           id="path6197"
           d="m 108.09,652.63 a 31.612,28.552 0 1 1 -63.222,0 31.612,28.552 0 1 1 63.222,0 z"
           transform="matrix(1.129,0,0,1.3214,-5.7894,-198.56)" />
        <path
           style="fill:#ffff00;stroke:#000000;stroke-width:3.0250001"
           inkscape:connector-curvature="0"
           id="path6199"
           d="m 87.369,627.66 c 8.806,1.63 14.381,6.42 18.741,10.76 4.74,4.73 9.39,14.33 9.36,22.01 -0.04,8.06 2.16,17.39 -9.07,28.83 -8.183,8.33 -10.893,9.25 -19.575,10.83 -8.705,1.57 -14.383,1.11 -19.407,-1.86 -2.244,-1.33 25.581,-9.74 23.635,-36.82 -1.712,-23.92 -28.632,-31.54 -22.674,-32.83 4.812,-1.05 12.426,-2.2 18.99,-0.92 z" />
        <path
           style="fill:#ffffff"
           inkscape:connector-curvature="0"
           id="path6201"
           d="m 371.18,351.81 a 74.44,72.401 0 1 1 -148.88,0 74.44,72.401 0 1 1 148.88,0 z"
           transform="matrix(0.71233,0,0,0.56338,257.7,209.69)" />
        <path
           style="fill:none;stroke:#000000;stroke-width:3.76099992"
           inkscape:connector-curvature="0"
           id="path6203"
           d="m 420.18,421.89 c 3.8,5.32 8.42,9.67 10.56,11.48 2.34,1.98 12.67,7.96 19.2,9.48 6.28,1.45 18.31,2.41 24.69,1.48 6.3,-0.92 9.75,-1.34 15.78,-3.62 6.03,-2.27 9.65,-4.9 15.37,-9.56 4.99,-4.07 6.68,-5.7 9.59,-12.82 2.81,-6.9 3.08,-9.32 2.61,-16.63 -0.48,-7.3 -3.7,-15.83 -3.7,-15.83" />
        <path
           style="fill:#ffffff;stroke:#000000;stroke-width:2.58800006"
           inkscape:connector-curvature="0"
           id="path6205"
           d="m 307.96,605.72 a 33.651,32.631 0 1 1 -67.3,0 33.651,32.631 0 1 1 67.3,0 z"
           transform="matrix(1.4829,-0.5468,0.56407,1.4375,-190.64,-78.289)" />
        <path
           style="fill:#ffff00;stroke:#000000;stroke-width:3.95519996"
           inkscape:connector-curvature="0"
           id="path6207"
           d="m 508.54,661.2 c -13.54,-46.98 27.11,-65.02 37.62,-68.09 22.55,-6.59 -11.21,21.3 -10.57,41.51 0.19,6.02 1.08,11.42 2.85,16.27 1.76,4.86 4.41,9.17 8.1,13 7.4,7.68 19.02,13.45 36.28,17.92 3.1,0.8 -8.73,9.78 -25.43,10.72 -17.43,0.98 -38.3,-10.32 -48.85,-31.33 z" />
        <path
           style="fill:#ffffff;stroke:#000000;stroke-width:2.58800006"
           inkscape:connector-curvature="0"
           id="path6209"
           d="m 307.96,605.72 a 33.651,32.631 0 1 1 -67.3,0 33.651,32.631 0 1 1 67.3,0 z"
           transform="matrix(0.049237,-0.98,1.044,0.11622,-293.02,700.14)" />
        <path
           style="fill:#ffff00;stroke:#000000;stroke-width:2.56830001"
           inkscape:connector-curvature="0"
           id="path6211"
           d="m 375.58,477.85 c 21.62,25.55 0.91,44.77 -3.29,50.82 -8.39,12.12 2.03,-16.51 -4.42,-28.88 -3.84,-7.37 -8.47,-12.46 -14.85,-15.25 -6.38,-2.79 -14.51,-3.27 -25.33,-1.43 -1.95,0.33 1.54,-8.51 10.96,-12.46 9.43,-3.95 24.79,-3.02 36.93,7.2 z" />
      </g>
    </g>
    <g
       transform="matrix(0.05107141,0,0,0.05107141,147.463,170.92884)"
       id="g6243">
      <g
         transform="translate(14.276,-22.434)"
         id="g6241">
        <rect
           x="67.873001"
           y="568.03003"
           width="589.47998"
           height="196.2"
           id="rect6217"
           style="fill:#ffff00;stroke:#000000;stroke-width:3.72939992" />
        <path
           d="m 70.734,555.96 469.3,-178.09 120.18,193.18 -592.34,-6.04 2.864,-9.05 z"
           id="path6219"
           inkscape:connector-curvature="0"
           style="fill:#ffff00;stroke:#000000;stroke-width:3.72939992" />
        <path
           transform="translate(18.355,75.46)"
           d="m 307.96,605.72 a 33.651,32.631 0 1 1 -67.3,0 33.651,32.631 0 1 1 67.3,0 z"
           id="path6221"
           inkscape:connector-curvature="0"
           style="fill:#ffffff;stroke:#000000;stroke-width:2.58800006" />
        <path
           d="m 288.43,713.07 c -31.23,-5.54 -26.13,-34.03 -26.33,-41.48 -0.39,-14.89 7.81,14.12 19.83,19.44 7.16,3.18 13.63,4.07 20.14,2.03 6.52,-2.05 13.08,-7.02 20.41,-15.56 1.32,-1.54 3.63,7.59 -1.41,16.85 -5.04,9.26 -17.45,18.65 -32.64,18.72 z"
           id="path6223"
           inkscape:connector-curvature="0"
           style="fill:#ffff00;stroke:#000000;stroke-width:2.53209996" />
        <path
           transform="matrix(1.129,0,0,1.3214,-5.7894,-198.56)"
           d="m 108.09,652.63 a 31.612,28.552 0 1 1 -63.222,0 31.612,28.552 0 1 1 63.222,0 z"
           id="path6225"
           inkscape:connector-curvature="0"
           style="fill:#ffffff" />
        <path
           d="m 87.369,627.66 c 8.806,1.63 14.381,6.42 18.741,10.76 4.74,4.73 9.39,14.33 9.36,22.01 -0.04,8.06 2.16,17.39 -9.07,28.83 -8.183,8.33 -10.893,9.25 -19.575,10.83 -8.705,1.57 -14.383,1.11 -19.407,-1.86 -2.244,-1.33 25.581,-9.74 23.635,-36.82 -1.712,-23.92 -28.632,-31.54 -22.674,-32.83 4.812,-1.05 12.426,-2.2 18.99,-0.92 z"
           id="path6227"
           inkscape:connector-curvature="0"
           style="fill:#ffff00;stroke:#000000;stroke-width:3.0250001" />
        <path
           transform="matrix(0.71233,0,0,0.56338,257.7,209.69)"
           d="m 371.18,351.81 a 74.44,72.401 0 1 1 -148.88,0 74.44,72.401 0 1 1 148.88,0 z"
           id="path6229"
           inkscape:connector-curvature="0"
           style="fill:#ffffff" />
        <path
           d="m 420.18,421.89 c 3.8,5.32 8.42,9.67 10.56,11.48 2.34,1.98 12.67,7.96 19.2,9.48 6.28,1.45 18.31,2.41 24.69,1.48 6.3,-0.92 9.75,-1.34 15.78,-3.62 6.03,-2.27 9.65,-4.9 15.37,-9.56 4.99,-4.07 6.68,-5.7 9.59,-12.82 2.81,-6.9 3.08,-9.32 2.61,-16.63 -0.48,-7.3 -3.7,-15.83 -3.7,-15.83"
           id="path6231"
           inkscape:connector-curvature="0"
           style="fill:none;stroke:#000000;stroke-width:3.76099992" />
        <path
           transform="matrix(1.4829,-0.5468,0.56407,1.4375,-190.64,-78.289)"
           d="m 307.96,605.72 a 33.651,32.631 0 1 1 -67.3,0 33.651,32.631 0 1 1 67.3,0 z"
           id="path6233"
           inkscape:connector-curvature="0"
           style="fill:#ffffff;stroke:#000000;stroke-width:2.58800006" />
        <path
           d="m 508.54,661.2 c -13.54,-46.98 27.11,-65.02 37.62,-68.09 22.55,-6.59 -11.21,21.3 -10.57,41.51 0.19,6.02 1.08,11.42 2.85,16.27 1.76,4.86 4.41,9.17 8.1,13 7.4,7.68 19.02,13.45 36.28,17.92 3.1,0.8 -8.73,9.78 -25.43,10.72 -17.43,0.98 -38.3,-10.32 -48.85,-31.33 z"
           id="path6235"
           inkscape:connector-curvature="0"
           style="fill:#ffff00;stroke:#000000;stroke-width:3.95519996" />
        <path
           transform="matrix(0.049237,-0.98,1.044,0.11622,-293.02,700.14)"
           d="m 307.96,605.72 a 33.651,32.631 0 1 1 -67.3,0 33.651,32.631 0 1 1 67.3,0 z"
           id="path6237"
           inkscape:connector-curvature="0"
           style="fill:#ffffff;stroke:#000000;stroke-width:2.58800006" />
        <path
           d="m 375.58,477.85 c 21.62,25.55 0.91,44.77 -3.29,50.82 -8.39,12.12 2.03,-16.51 -4.42,-28.88 -3.84,-7.37 -8.47,-12.46 -14.85,-15.25 -6.38,-2.79 -14.51,-3.27 -25.33,-1.43 -1.95,0.33 1.54,-8.51 10.96,-12.46 9.43,-3.95 24.79,-3.02 36.93,7.2 z"
           id="path6239"
           inkscape:connector-curvature="0"
           style="fill:#ffff00;stroke:#000000;stroke-width:2.56830001" />
      </g>
    </g>
  </g>
</svg>
